<?xml version="1.0" encoding="UTF-8" standalone="no"?>
<!DOCTYPE svg PUBLIC "-//W3C//DTD SVG 1.0//EN" "http://www.w3.org/TR/2001/REC-SVG-20010904/DTD/svg10.dtd">
<!-- Generated by Microsoft Visio 11.0, SVG Export, v1.0 async.svg Page-1 -->
<svg xmlns="http://www.w3.org/2000/svg" xmlns:v="http://schemas.microsoft.com/visio/2003/SVGExtensions/" width="5.54165in"
		height="2.42157in" viewBox="0 0 398.999 174.353" xml:space="preserve" color-interpolation-filters="sRGB" class="st5">
	<v:documentProperties v:langID="11274" v:metric="true" v:viewMarkup="false">
		<v:userDefs>
			<v:ud v:nameU="msvNoAutoConnect" v:val="VT0(1):26"/>
		</v:userDefs>
	</v:documentProperties>

	<style type="text/css">
	<![CDATA[
		.st1 {fill:#ffffff;stroke:#000000;stroke-linecap:round;stroke-linejoin:round;stroke-width:2.16}
		.st2 {fill:none;stroke:none;stroke-linecap:round;stroke-linejoin:round;stroke-width:0.72}
		.st3 {fill:#000000;font-family:Verdana;font-size:0.833336em}
		.st4 {stroke:#000000;stroke-linecap:round;stroke-linejoin:round;stroke-width:0.72}
		.st5 {fill:none;fill-rule:evenodd;font-size:12;overflow:visible;stroke-linecap:square;stroke-miterlimit:3}
	]]>
	</style>

	<g v:mID="0" v:index="1" v:groupContext="foregroundPage">
		<title>Page-1</title>
		<v:pageProperties v:drawingScale="0.0393701" v:pageScale="0.0393701" v:drawingUnits="24" v:shadowOffsetX="8.50394"
				v:shadowOffsetY="-8.50394"/>
		<g id="shape1-1" v:mID="1" v:groupContext="shape" transform="translate(79.3814,-98.5153)">
			<title>Sheet.1</title>
			<rect x="0" y="117.66" width="42.5197" height="56.6929" class="st1"/>
		</g>
		<g id="shape2-3" v:mID="2" v:groupContext="shape" transform="translate(79.3814,-138.2)">
			<title>Sheet.2</title>
			<desc>d</desc>
			<v:textBlock v:margins="rect(4,4,4,4)" v:tabSpace="42.5197"/>
			<v:textRect cx="7.08661" cy="168.684" width="14.18" height="11.3386"/>
			<rect x="0" y="163.015" width="14.1732" height="11.3386" class="st2"/>
			<text x="4" y="171.68" class="st3" v:langID="11274"><v:paragraph v:horizAlign="1"/><v:tabList/>d</text>		</g>
		<g id="shape3-6" v:mID="3" v:groupContext="shape" transform="translate(107.728,-138.2)">
			<title>Sheet.3</title>
			<desc>q</desc>
			<v:textBlock v:margins="rect(4,4,4,4)" v:tabSpace="42.5197"/>
			<v:textRect cx="7.08661" cy="168.684" width="14.18" height="11.3386"/>
			<rect x="0" y="163.015" width="14.1732" height="11.3386" class="st2"/>
			<text x="4" y="171.68" class="st3" v:langID="11274"><v:paragraph v:horizAlign="1"/><v:tabList/>q</text>		</g>
		<g id="shape5-9" v:mID="5" v:groupContext="shape" transform="translate(88.2397,-99.9326)">
			<title>Sheet.5</title>
			<desc>le</desc>
			<v:textBlock v:margins="rect(4,4,4,4)" v:tabSpace="42.5197"/>
			<v:textRect cx="12.4016" cy="168.684" width="24.81" height="11.3386"/>
			<rect x="0" y="163.015" width="24.8031" height="11.3386" class="st2"/>
			<text x="8.05" y="171.68" class="st3" v:langID="11274"><v:paragraph v:horizAlign="1"/><v:tabList/>le</text>		</g>
		<g id="shape6-12" v:mID="6" v:groupContext="shape" transform="translate(51.035,-141.035)">
			<title>Sheet.6</title>
			<path d="M0 174.35 L28.35 174.35" class="st4"/>
		</g>
		<g id="shape8-15" v:mID="8" v:groupContext="shape" transform="translate(121.901,-141.035)">
			<title>Sheet.8</title>
			<path d="M127.56 174.35 L28.35 174.35 L0 174.35" class="st4"/>
		</g>
		<g id="shape9-18" v:mID="9" v:groupContext="shape" transform="translate(277.807,-98.5153)">
			<title>Sheet.9</title>
			<rect x="0" y="117.66" width="42.5197" height="56.6929" class="st1"/>
		</g>
		<g id="shape10-20" v:mID="10" v:groupContext="shape" transform="translate(277.807,-138.2)">
			<title>Sheet.10</title>
			<desc>d</desc>
			<v:textBlock v:margins="rect(4,4,4,4)" v:tabSpace="42.5197"/>
			<v:textRect cx="7.08661" cy="168.684" width="14.18" height="11.3386"/>
			<rect x="0" y="163.015" width="14.1732" height="11.3386" class="st2"/>
			<text x="4" y="171.68" class="st3" v:langID="11274"><v:paragraph v:horizAlign="1"/><v:tabList/>d</text>		</g>
		<g id="shape11-23" v:mID="11" v:groupContext="shape" transform="translate(306.153,-138.2)">
			<title>Sheet.11</title>
			<desc>q</desc>
			<v:textBlock v:margins="rect(4,4,4,4)" v:tabSpace="42.5197"/>
			<v:textRect cx="7.08661" cy="168.684" width="14.18" height="11.3386"/>
			<rect x="0" y="163.015" width="14.1732" height="11.3386" class="st2"/>
			<text x="4" y="171.68" class="st3" v:langID="11274"><v:paragraph v:horizAlign="1"/><v:tabList/>q</text>		</g>
		<g id="shape14-26" v:mID="14" v:groupContext="shape" transform="translate(249.46,-141.035)">
			<title>Sheet.14</title>
			<path d="M0 174.35 L28.35 174.35" class="st4"/>
		</g>
		<g id="shape16-29" v:mID="16" v:groupContext="shape" transform="translate(348.673,207.672) rotate(180)">
			<title>Sheet.16</title>
			<path d="M0 174.35 L28.35 174.35" class="st4"/>
		</g>
		<g id="shape20-32" v:mID="20" v:groupContext="shape" transform="translate(51.035,207.672) rotate(180)">
			<title>Sheet.20</title>
			<path d="M0 174.35 L28.35 174.35" class="st4"/>
		</g>
		<g id="shape21-35" v:mID="21" v:groupContext="shape" transform="translate(8.51528,-155.208)">
			<title>Sheet.21</title>
			<desc>a</desc>
			<v:textBlock v:margins="rect(4,4,4,4)" v:tabSpace="42.5197"/>
			<v:textRect cx="7.08661" cy="168.684" width="14.18" height="11.3386"/>
			<rect x="0" y="163.015" width="14.1732" height="11.3386" class="st2"/>
			<text x="4.08" y="171.68" class="st3" v:langID="11274"><v:paragraph v:horizAlign="1"/><v:tabList/>a</text>		</g>
		<g id="shape4-38" v:mID="4" v:groupContext="shape" transform="translate(286.665,-99.9326)">
			<title>Sheet.4</title>
			<desc>le</desc>
			<v:textBlock v:margins="rect(4,4,4,4)" v:tabSpace="42.5197"/>
			<v:textRect cx="12.4016" cy="168.684" width="24.81" height="11.3386"/>
			<rect x="0" y="163.015" width="24.8031" height="11.3386" class="st2"/>
			<text x="8.05" y="171.68" class="st3" v:langID="11274"><v:paragraph v:horizAlign="1"/><v:tabList/>le</text>		</g>
		<g id="shape7-41" v:mID="7" v:groupContext="shape" transform="translate(79.3814,-13.4759)">
			<title>Sheet.7</title>
			<rect x="0" y="117.66" width="42.5197" height="56.6929" class="st1"/>
		</g>
		<g id="shape12-43" v:mID="12" v:groupContext="shape" transform="translate(22.6885,-55.9956)">
			<title>Sheet.12</title>
			<path d="M0 174.35 L56.69 174.35" class="st4"/>
		</g>
		<g id="shape13-46" v:mID="13" v:groupContext="shape" transform="translate(22.6885,-27.6491)">
			<title>Sheet.13</title>
			<path d="M0 174.35 L56.69 174.35" class="st4"/>
		</g>
		<g id="shape15-49" v:mID="15" v:groupContext="shape" transform="translate(-73.7121,104.185) rotate(-90)">
			<title>Sheet.15</title>
			<path d="M0 174.35 L28.35 174.35" class="st4"/>
		</g>
		<g id="shape17-52" v:mID="17" v:groupContext="shape" transform="translate(88.2397,-57.4129)">
			<title>Sheet.17</title>
			<desc>le</desc>
			<v:textBlock v:margins="rect(4,4,4,4)" v:tabSpace="42.5197"/>
			<v:textRect cx="12.4016" cy="168.684" width="24.81" height="11.3386"/>
			<rect x="0" y="163.015" width="24.8031" height="11.3386" class="st2"/>
			<text x="8.05" y="171.68" class="st3" v:langID="11274"><v:paragraph v:horizAlign="1"/><v:tabList/>le</text>		</g>
		<g id="shape18-55" v:mID="18" v:groupContext="shape" transform="translate(79.3814,-48.909)">
			<title>Sheet.18</title>
			<desc>lr</desc>
			<v:textBlock v:margins="rect(4,4,4,4)" v:tabSpace="42.5197"/>
			<v:textRect cx="12.4016" cy="168.684" width="24.81" height="11.3386"/>
			<rect x="0" y="163.015" width="24.8031" height="11.3386" class="st2"/>
			<text x="4" y="171.68" class="st3" v:langID="11274"><v:paragraph/><v:tabList/>lr</text>		</g>
		<g id="shape19-58" v:mID="19" v:groupContext="shape" transform="translate(79.3814,-23.3972)">
			<title>Sheet.19</title>
			<desc>la</desc>
			<v:textBlock v:margins="rect(4,4,4,4)" v:tabSpace="42.5197"/>
			<v:textRect cx="12.4016" cy="168.684" width="24.81" height="11.3386"/>
			<rect x="0" y="163.015" width="24.8031" height="11.3386" class="st2"/>
			<text x="4" y="171.68" class="st3" v:langID="11274"><v:paragraph/><v:tabList/>la</text>		</g>
		<g id="shape22-61" v:mID="22" v:groupContext="shape" transform="translate(97.098,-48.909)">
			<title>Sheet.22</title>
			<desc>rr</desc>
			<v:textBlock v:margins="rect(4,4,4,4)" v:tabSpace="42.5197"/>
			<v:textRect cx="12.4016" cy="168.684" width="24.81" height="11.3386"/>
			<rect x="0" y="163.015" width="24.8031" height="11.3386" class="st2"/>
			<text x="12.27" y="171.68" class="st3" v:langID="11274"><v:paragraph v:horizAlign="2"/><v:tabList/>rr</text>		</g>
		<g id="shape23-64" v:mID="23" v:groupContext="shape" transform="translate(104.185,-23.3972)">
			<title>Sheet.23</title>
			<desc>ra</desc>
			<v:textBlock v:margins="rect(4,4,4,4)" v:tabSpace="42.5197"/>
			<v:textRect cx="12.4016" cy="168.684" width="24.81" height="11.3386"/>
			<rect x="0" y="163.015" width="24.8031" height="11.3386" class="st2"/>
			<text x="4" y="171.68" class="st3" v:langID="11274"><v:paragraph/><v:tabList/>ra</text>		</g>
		<g id="shape24-67" v:mID="24" v:groupContext="shape" transform="translate(277.807,-13.4759)">
			<title>Sheet.24</title>
			<rect x="0" y="117.66" width="42.5197" height="56.6929" class="st1"/>
		</g>
		<g id="shape25-69" v:mID="25" v:groupContext="shape" transform="translate(121.901,-55.9956)">
			<title>Sheet.25</title>
			<path d="M0 174.35 L155.91 174.35" class="st4"/>
		</g>
		<g id="shape26-72" v:mID="26" v:groupContext="shape" transform="translate(121.901,-27.6491)">
			<title>Sheet.26</title>
			<path d="M0 174.35 L155.91 174.35" class="st4"/>
		</g>
		<g id="shape27-75" v:mID="27" v:groupContext="shape" transform="translate(286.665,-57.4129)">
			<title>Sheet.27</title>
			<desc>le</desc>
			<v:textBlock v:margins="rect(4,4,4,4)" v:tabSpace="42.5197"/>
			<v:textRect cx="12.4016" cy="168.684" width="24.81" height="11.3386"/>
			<rect x="0" y="163.015" width="24.8031" height="11.3386" class="st2"/>
			<text x="8.05" y="171.68" class="st3" v:langID="11274"><v:paragraph v:horizAlign="1"/><v:tabList/>le</text>		</g>
		<g id="shape28-78" v:mID="28" v:groupContext="shape" transform="translate(277.807,-48.909)">
			<title>Sheet.28</title>
			<desc>lr</desc>
			<v:textBlock v:margins="rect(4,4,4,4)" v:tabSpace="42.5197"/>
			<v:textRect cx="12.4016" cy="168.684" width="24.81" height="11.3386"/>
			<rect x="0" y="163.015" width="24.8031" height="11.3386" class="st2"/>
			<text x="4" y="171.68" class="st3" v:langID="11274"><v:paragraph/><v:tabList/>lr</text>		</g>
		<g id="shape29-81" v:mID="29" v:groupContext="shape" transform="translate(277.807,-23.3972)">
			<title>Sheet.29</title>
			<desc>la</desc>
			<v:textBlock v:margins="rect(4,4,4,4)" v:tabSpace="42.5197"/>
			<v:textRect cx="12.4016" cy="168.684" width="24.81" height="11.3386"/>
			<rect x="0" y="163.015" width="24.8031" height="11.3386" class="st2"/>
			<text x="4" y="171.68" class="st3" v:langID="11274"><v:paragraph/><v:tabList/>la</text>		</g>
		<g id="shape30-84" v:mID="30" v:groupContext="shape" transform="translate(295.523,-48.909)">
			<title>Sheet.30</title>
			<desc>rr</desc>
			<v:textBlock v:margins="rect(4,4,4,4)" v:tabSpace="42.5197"/>
			<v:textRect cx="12.4016" cy="168.684" width="24.81" height="11.3386"/>
			<rect x="0" y="163.015" width="24.8031" height="11.3386" class="st2"/>
			<text x="12.27" y="171.68" class="st3" v:langID="11274"><v:paragraph v:horizAlign="2"/><v:tabList/>rr</text>		</g>
		<g id="shape31-87" v:mID="31" v:groupContext="shape" transform="translate(302.61,-23.3972)">
			<title>Sheet.31</title>
			<desc>ra</desc>
			<v:textBlock v:margins="rect(4,4,4,4)" v:tabSpace="42.5197"/>
			<v:textRect cx="12.4016" cy="168.684" width="24.81" height="11.3386"/>
			<rect x="0" y="163.015" width="24.8031" height="11.3386" class="st2"/>
			<text x="4" y="171.68" class="st3" v:langID="11274"><v:paragraph/><v:tabList/>ra</text>		</g>
		<g id="shape32-90" v:mID="32" v:groupContext="shape" transform="translate(124.713,104.185) rotate(-90)">
			<title>Sheet.32</title>
			<path d="M0 174.35 L28.35 174.35" class="st4"/>
		</g>
		<g id="shape33-93" v:mID="33" v:groupContext="shape" transform="translate(348.673,292.711) rotate(180)">
			<title>Sheet.33</title>
			<path d="M0 174.35 L28.35 174.35" class="st4"/>
		</g>
		<g id="shape34-96" v:mID="34" v:groupContext="shape" transform="translate(348.673,321.058) rotate(180)">
			<title>Sheet.34</title>
			<path d="M0 174.35 L28.35 174.35" class="st4"/>
		</g>
		<g id="shape35-99" v:mID="35" v:groupContext="shape" transform="translate(93.5546,-162.295)">
			<title>Sheet.35</title>
			<desc>b</desc>
			<v:textBlock v:margins="rect(4,4,4,4)" v:tabSpace="42.5197"/>
			<v:textRect cx="7.08661" cy="168.684" width="14.18" height="11.3386"/>
			<rect x="0" y="163.015" width="14.1732" height="11.3386" class="st2"/>
			<text x="4" y="171.68" class="st3" v:langID="11274"><v:paragraph v:horizAlign="1"/><v:tabList/>b</text>		</g>
		<g id="shape36-102" v:mID="36" v:groupContext="shape" transform="translate(8.51528,-133.948)">
			<title>Sheet.36</title>
			<rect x="0" y="160.18" width="14.1732" height="14.1732" class="st1"/>
		</g>
		<g id="shape37-104" v:mID="37" v:groupContext="shape" transform="translate(-114.771,-82.8814) rotate(-45)">
			<title>Sheet.37</title>
			<path d="M0 174.35 L20.04 174.35" class="st4"/>
		</g>
		<g id="shape38-107" v:mID="38" v:groupContext="shape" transform="translate(131.802,-97.0547) rotate(45)">
			<title>Sheet.38</title>
			<path d="M0 174.35 L20.04 174.35" class="st4"/>
		</g>
		<g id="shape39-110" v:mID="39" v:groupContext="shape" transform="translate(8.51528,-48.909)">
			<title>Sheet.39</title>
			<rect x="0" y="160.18" width="14.1732" height="14.1732" class="st1"/>
		</g>
		<g id="shape40-112" v:mID="40" v:groupContext="shape" transform="translate(-114.771,2.15795) rotate(-45)">
			<title>Sheet.40</title>
			<path d="M0 174.35 L20.04 174.35" class="st4"/>
		</g>
		<g id="shape41-115" v:mID="41" v:groupContext="shape" transform="translate(131.802,-12.0153) rotate(45)">
			<title>Sheet.41</title>
			<path d="M0 174.35 L20.04 174.35" class="st4"/>
		</g>
		<g id="shape42-118" v:mID="42" v:groupContext="shape" transform="translate(8.51528,-20.5625)">
			<title>Sheet.42</title>
			<rect x="0" y="160.18" width="14.1732" height="14.1732" class="st1"/>
		</g>
		<g id="shape43-120" v:mID="43" v:groupContext="shape" transform="translate(-114.771,30.5044) rotate(-45)">
			<title>Sheet.43</title>
			<path d="M0 174.35 L20.04 174.35" class="st4"/>
		</g>
		<g id="shape44-123" v:mID="44" v:groupContext="shape" transform="translate(131.802,16.3312) rotate(45)">
			<title>Sheet.44</title>
			<path d="M0 174.35 L20.04 174.35" class="st4"/>
		</g>
		<g id="shape45-126" v:mID="45" v:groupContext="shape" transform="translate(0.72,-70.1688)">
			<title>Sheet.45</title>
			<desc>lr_b</desc>
			<v:textBlock v:margins="rect(4,4,4,4)" v:tabSpace="42.5197"/>
			<v:textRect cx="14.8819" cy="168.684" width="29.77" height="11.3386"/>
			<rect x="0" y="163.015" width="29.7638" height="11.3386" class="st2"/>
			<text x="5.08" y="171.68" class="st3" v:langID="11274"><v:paragraph v:horizAlign="1"/><v:tabList/>lr_b</text>		</g>
		<g id="shape46-129" v:mID="46" v:groupContext="shape" transform="translate(0.72,-0.72)">
			<title>Sheet.46</title>
			<desc>la_b</desc>
			<v:textBlock v:margins="rect(4,4,4,4)" v:tabSpace="42.5197"/>
			<v:textRect cx="14.8819" cy="168.684" width="29.77" height="11.3386"/>
			<rect x="0" y="163.015" width="29.7638" height="11.3386" class="st2"/>
			<text x="4.21" y="171.68" class="st3" v:langID="11274"><v:paragraph v:horizAlign="1"/><v:tabList/>la_b</text>		</g>
		<g id="shape47-132" v:mID="47" v:groupContext="shape" transform="translate(348.673,-133.948)">
			<title>Sheet.47</title>
			<rect x="0" y="160.18" width="14.1732" height="14.1732" class="st1"/>
		</g>
		<g id="shape48-134" v:mID="48" v:groupContext="shape" transform="translate(225.386,-82.8814) rotate(-45)">
			<title>Sheet.48</title>
			<path d="M0 174.35 L20.04 174.35" class="st4"/>
		</g>
		<g id="shape49-137" v:mID="49" v:groupContext="shape" transform="translate(471.959,-97.0547) rotate(45)">
			<title>Sheet.49</title>
			<path d="M0 174.35 L20.04 174.35" class="st4"/>
		</g>
		<g id="shape50-140" v:mID="50" v:groupContext="shape" transform="translate(348.673,-48.909)">
			<title>Sheet.50</title>
			<rect x="0" y="160.18" width="14.1732" height="14.1732" class="st1"/>
		</g>
		<g id="shape51-142" v:mID="51" v:groupContext="shape" transform="translate(225.386,2.15795) rotate(-45)">
			<title>Sheet.51</title>
			<path d="M0 174.35 L20.04 174.35" class="st4"/>
		</g>
		<g id="shape52-145" v:mID="52" v:groupContext="shape" transform="translate(471.959,-12.0153) rotate(45)">
			<title>Sheet.52</title>
			<path d="M0 174.35 L20.04 174.35" class="st4"/>
		</g>
		<g id="shape53-148" v:mID="53" v:groupContext="shape" transform="translate(348.673,-20.5625)">
			<title>Sheet.53</title>
			<rect x="0" y="160.18" width="14.1732" height="14.1732" class="st1"/>
		</g>
		<g id="shape54-150" v:mID="54" v:groupContext="shape" transform="translate(225.386,30.5044) rotate(-45)">
			<title>Sheet.54</title>
			<path d="M0 174.35 L20.04 174.35" class="st4"/>
		</g>
		<g id="shape55-153" v:mID="55" v:groupContext="shape" transform="translate(471.959,16.3312) rotate(45)">
			<title>Sheet.55</title>
			<path d="M0 174.35 L20.04 174.35" class="st4"/>
		</g>
		<g id="shape56-156" v:mID="56" v:groupContext="shape" transform="translate(291.98,-162.295)">
			<title>Sheet.56</title>
			<desc>y</desc>
			<v:textBlock v:margins="rect(4,4,4,4)" v:tabSpace="42.5197"/>
			<v:textRect cx="7.08661" cy="168.684" width="14.18" height="11.3386"/>
			<rect x="0" y="163.015" width="14.1732" height="11.3386" class="st2"/>
			<text x="4.13" y="171.68" class="st3" v:langID="11274"><v:paragraph v:horizAlign="1"/><v:tabList/>y</text>		</g>
		<g id="shape57-159" v:mID="57" v:groupContext="shape" transform="translate(365.681,-136.783)">
			<title>Sheet.57</title>
			<desc>y</desc>
			<v:textBlock v:margins="rect(4,4,4,4)" v:tabSpace="42.5197"/>
			<v:textRect cx="7.08661" cy="168.684" width="14.18" height="11.3386"/>
			<rect x="0" y="163.015" width="14.1732" height="11.3386" class="st2"/>
			<text x="4.13" y="171.68" class="st3" v:langID="11274"><v:paragraph v:horizAlign="1"/><v:tabList/>y</text>		</g>
		<g id="shape58-162" v:mID="58" v:groupContext="shape" transform="translate(365.681,-50.3263)">
			<title>Sheet.58</title>
			<desc>rr_y</desc>
			<v:textBlock v:margins="rect(4,4,4,4)" v:tabSpace="42.5197"/>
			<v:textRect cx="14.5276" cy="168.684" width="29.06" height="11.3386"/>
			<rect x="0" y="163.015" width="29.0551" height="11.3386" class="st2"/>
			<text x="4.12" y="171.68" class="st3" v:langID="11274"><v:paragraph v:horizAlign="1"/><v:tabList/>rr_y</text>		</g>
		<g id="shape59-165" v:mID="59" v:groupContext="shape" transform="translate(364.972,-21.9798)">
			<title>Sheet.59</title>
			<desc>ra_y</desc>
			<v:textBlock v:margins="rect(4,4,4,4)" v:tabSpace="42.5197"/>
			<v:textRect cx="16.6535" cy="168.684" width="33.31" height="11.3386"/>
			<rect x="0" y="163.015" width="33.3071" height="11.3386" class="st2"/>
			<text x="5.38" y="171.68" class="st3" v:langID="11274"><v:paragraph v:horizAlign="1"/><v:tabList/>ra_y</text>		</g>
	</g>
</svg>
